<svg width="63" height="30" viewBox="0 0 63 30" fill="none" xmlns="http://www.w3.org/2000/svg">
<g clip-path="url(#clip0_9_39)">
<path d="M42.0857 4.68485C41.8388 3.77489 41.3562 2.94576 40.6863 2.28071C40.0165 1.61567 39.1831 1.13813 38.2697 0.896049C34.917 0 21.4814 0 21.4814 0C21.4814 0 8.04226 0 4.69662 0.896049C3.78618 1.14018 2.95604 1.6187 2.28941 2.28367C1.62277 2.94864 1.14304 3.77669 0.8983 4.68485C0 8.02563 0 15 0 15C0 15 0 21.9744 0.8983 25.3151C1.14304 26.2233 1.62277 27.0514 2.28941 27.7163C2.95604 28.3813 3.78618 28.8598 4.69662 29.104C8.04579 29.9859 21.4814 29.9859 21.4814 29.9859C21.4814 29.9859 34.9205 29.9859 38.2697 29.0898C39.1814 28.849 40.0137 28.3736 40.6834 27.7111C41.353 27.0487 41.8366 26.2225 42.0857 25.3151C42.9805 21.9744 42.9805 15 42.9805 15C42.9805 15 42.9628 8.02563 42.0857 4.68485Z" fill="#E70000"/>
<path d="M1.56318 20.2211V10.1H5.15992C5.66975 10.0977 6.17837 10.1497 6.67712 10.2552C7.12081 10.3493 7.543 10.5252 7.92201 10.7738C8.28131 11.0218 8.57302 11.3552 8.7708 11.7439C8.99133 12.2148 9.09793 12.7307 9.08202 13.2502C9.10895 13.9005 8.93487 14.5434 8.58336 15.0917C8.25563 15.5602 7.80209 15.927 7.27481 16.15L9.54885 20.2211H6.99542L5.05028 16.5804H3.85137V20.2211H1.56318ZM3.85137 14.7566H4.97248C6.20793 14.7566 6.82566 14.2545 6.82566 13.2502C6.84756 13.0523 6.81657 12.852 6.73582 12.6699C6.65507 12.4877 6.52745 12.3301 6.3659 12.2131C5.93999 11.9888 5.46021 11.8862 4.97955 11.9167H3.85137V14.7566Z" fill="white"/>
<path d="M14.4647 20.408C14.1029 20.4144 13.7431 20.3534 13.4038 20.2281C13.1076 20.1176 12.8369 19.9484 12.608 19.7307C12.3921 19.5208 12.2202 19.2702 12.1023 18.9934C11.9827 18.7037 11.9226 18.393 11.9255 18.0797C11.906 17.6724 12.0069 17.2684 12.2157 16.9178C12.4244 16.5672 12.7318 16.2855 13.0996 16.1077C13.5965 15.8476 14.1292 15.6622 14.6805 15.5574C15.4486 15.4006 16.2279 15.3039 17.0111 15.2681C16.9962 15.1099 16.9483 14.9566 16.8703 14.818C16.7923 14.6795 16.6861 14.5588 16.5584 14.4638C16.2023 14.2427 15.7849 14.1402 15.3666 14.171C14.9827 14.173 14.6016 14.2373 14.2384 14.3615C13.8205 14.5082 13.4129 14.6826 13.0183 14.8836L12.2084 13.3913C12.7501 13.0867 13.3212 12.8373 13.913 12.647C14.5288 12.4483 15.1721 12.3471 15.8193 12.3471C16.7476 12.2943 17.6608 12.6 18.3692 13.2008C18.9916 13.7676 19.3028 14.6413 19.3028 15.822V20.2316H17.4355L17.2657 19.3638H17.2021C16.8052 19.6636 16.3728 19.9136 15.9148 20.1082C15.4574 20.307 14.9637 20.4091 14.4647 20.408ZM15.1968 18.6442C15.53 18.6453 15.8594 18.5743 16.1623 18.436C16.4649 18.2939 16.7507 18.1188 17.0146 17.9139V16.6439C16.54 16.6621 16.0673 16.7139 15.6 16.7991C15.2933 16.8498 14.9947 16.9412 14.7123 17.0708C14.5274 17.1508 14.3691 17.2817 14.2561 17.4482C14.1686 17.5879 14.122 17.7492 14.1217 17.9139C14.1147 18.0238 14.1381 18.1336 14.1892 18.2312C14.2403 18.3288 14.3173 18.4107 14.4117 18.4678C14.6562 18.5963 14.9316 18.6549 15.2074 18.6371L15.1968 18.6442Z" fill="white"/>
<path d="M22.6025 20.2211V12.52H24.4698L24.6396 13.5466H24.7032C25.0425 13.2125 25.427 12.9275 25.8456 12.6999C26.3124 12.454 26.835 12.3325 27.3628 12.3471C28.2363 12.3471 28.8729 12.6258 29.2796 13.1832C29.7175 13.8679 29.9291 14.6724 29.8844 15.4833V20.2211H27.5856V15.7655C27.6163 15.372 27.5302 14.9782 27.338 14.6331C27.2313 14.5052 27.0941 14.4058 26.9391 14.3442C26.7841 14.2826 26.616 14.2607 26.4503 14.2803C26.1649 14.2739 25.883 14.3433 25.6334 14.4814C25.3573 14.6493 25.1041 14.852 24.8801 15.0847V20.2211H22.6025Z" fill="white"/>
<path d="M35.9709 20.408C35.5114 20.413 35.0564 20.3179 34.6376 20.1294C34.2348 19.9442 33.8793 19.6704 33.5978 19.3286C33.2967 18.9534 33.0721 18.5232 32.9365 18.0621C32.7733 17.5139 32.6946 16.9441 32.7031 16.3723C32.6932 15.7957 32.7878 15.222 32.9825 14.679C33.1532 14.212 33.4085 13.7803 33.7358 13.4055C34.0303 13.0685 34.3916 12.7958 34.7967 12.6047C35.1807 12.4205 35.6014 12.3252 36.0275 12.326C36.4061 12.3137 36.7829 12.3848 37.1309 12.5341C37.4463 12.6864 37.7315 12.8943 37.9726 13.1479H38.0327L37.9266 11.952V9.34149H40.2113V20.2211H38.344L38.1742 19.4309H38.1282C37.8339 19.7155 37.4975 19.9534 37.1309 20.1364C36.7709 20.3163 36.3736 20.4094 35.9709 20.408ZM36.5615 18.5454C36.8066 18.5459 37.0486 18.4904 37.2688 18.3831C37.5199 18.2469 37.7383 18.0579 37.909 17.8293V14.7107C37.7257 14.5393 37.5106 14.4051 37.2759 14.3156C37.0641 14.238 36.8402 14.1986 36.6146 14.1992C36.4041 14.2 36.1965 14.2475 36.0069 14.3385C35.8172 14.4294 35.6503 14.5614 35.5182 14.7248C35.1776 15.1919 35.0147 15.7646 35.0584 16.3406C35.0132 16.9257 35.149 17.5105 35.4475 18.0162C35.5743 18.19 35.7427 18.3293 35.9372 18.4217C36.1317 18.5142 36.3463 18.5567 36.5615 18.5454Z" fill="white"/>
<path d="M47.6346 20.408C47.1316 20.4087 46.6329 20.3166 46.1634 20.1364C45.7017 19.9558 45.2782 19.6902 44.915 19.3532C44.5371 18.9969 44.2383 18.5654 44.0379 18.0868C43.5992 16.9857 43.5992 15.7589 44.0379 14.6578C44.2391 14.1837 44.5379 13.757 44.915 13.4055C45.2805 13.0646 45.7095 12.7986 46.1776 12.6223C47.1236 12.2603 48.1705 12.2603 49.1165 12.6223C49.5796 12.8002 50.0036 13.0662 50.3649 13.4055C50.7436 13.7611 51.0425 14.1927 51.242 14.6719C51.6807 15.773 51.6807 16.9998 51.242 18.1009C51.0416 18.5795 50.7428 19.011 50.3649 19.3674C49.9975 19.7058 49.5691 19.9715 49.1023 20.1505C48.6331 20.3256 48.1356 20.4129 47.6346 20.408ZM47.6346 18.5595C47.8669 18.5726 48.0987 18.5252 48.307 18.4219C48.5154 18.3186 48.6932 18.163 48.8229 17.9704C49.1113 17.4888 49.2492 16.9324 49.219 16.3723C49.2492 15.8122 49.1113 15.2558 48.8229 14.7742C48.6842 14.5902 48.5045 14.4408 48.2979 14.338C48.0914 14.2351 47.8637 14.1816 47.6329 14.1816C47.402 14.1816 47.1743 14.2351 46.9678 14.338C46.7613 14.4408 46.5815 14.5902 46.4428 14.7742C46.1545 15.2558 46.0166 15.8122 46.0467 16.3723C46.0166 16.9324 46.1545 17.4888 46.4428 17.9704C46.5731 18.1633 46.7516 18.319 46.9605 18.4223C47.1695 18.5256 47.4018 18.5729 47.6346 18.5595Z" fill="#221E1F"/>
<path d="M54.0112 20.2211V12.52H55.7406L55.8962 13.469H55.9563C56.0996 13.1619 56.307 12.8888 56.5646 12.6682C56.8657 12.432 57.2432 12.314 57.6256 12.3366C57.9389 12.3294 58.243 12.4431 58.4744 12.6541C58.7307 12.9093 58.9023 13.2368 58.9659 13.5924C59.1023 13.2505 59.3166 12.9449 59.5919 12.6999C59.8957 12.4514 60.2819 12.3256 60.6741 12.3471C60.9272 12.3356 61.179 12.3905 61.4042 12.5062C61.6295 12.622 61.8204 12.7946 61.9579 13.0068C62.2788 13.5543 62.4325 14.1833 62.4 14.8166V20.2211H60.2214V14.9753C60.2272 14.7996 60.1934 14.6248 60.1224 14.4638C60.0886 14.408 60.04 14.3627 59.9819 14.3328C59.9239 14.3029 59.8587 14.2896 59.7935 14.2945C59.7216 14.2917 59.6501 14.3055 59.5844 14.3349C59.5188 14.3643 59.4608 14.4084 59.4151 14.4638C59.2832 14.6369 59.1728 14.8252 59.0862 15.0247V20.2211H57.2967V14.9753C57.2967 14.505 57.1517 14.2698 56.8617 14.2698C56.7893 14.27 56.718 14.2867 56.6531 14.3184C56.5881 14.3502 56.5313 14.3963 56.4868 14.4532C56.359 14.6259 56.2544 14.8145 56.1756 15.0141V20.2211H54.0112Z" fill="#221E1F"/>
</g>
<defs>
<clipPath id="clip0_9_39">
<rect width="62.4" height="30" fill="white"/>
</clipPath>
</defs>
</svg>
